<mxfile host="app.diagrams.net" agent="Mozilla/5.0 (X11; Linux x86_64) AppleWebKit/537.36 (KHTML, like Gecko) Chrome/137.0.0.0 Safari/537.36 OPR/121.0.0.0" version="28.2.0">
  <diagram name="PÃ¡gina-1" id="kSuiAU2CctGDqLqsl8-L">
    <mxGraphModel dx="1169" dy="1905" grid="1" gridSize="10" guides="1" tooltips="1" connect="1" arrows="1" fold="1" page="1" pageScale="1" pageWidth="827" pageHeight="1169" math="0" shadow="0">
      <root>
        <mxCell id="0" />
        <mxCell id="1" parent="0" />
        <mxCell id="4nj-M8SeGnCszZqQIPwX-1" value="Employee" style="whiteSpace=wrap;html=1;align=center;" parent="1" vertex="1">
          <mxGeometry x="1060" y="170" width="100" height="40" as="geometry" />
        </mxCell>
        <mxCell id="4nj-M8SeGnCszZqQIPwX-2" value="Role" style="whiteSpace=wrap;html=1;align=center;" parent="1" vertex="1">
          <mxGeometry x="1290" y="295" width="100" height="40" as="geometry" />
        </mxCell>
        <mxCell id="4nj-M8SeGnCszZqQIPwX-5" value="N" style="text;strokeColor=none;fillColor=none;spacingLeft=4;spacingRight=4;overflow=hidden;rotatable=0;points=[[0,0.5],[1,0.5]];portConstraint=eastwest;fontSize=12;whiteSpace=wrap;html=1;" parent="1" vertex="1">
          <mxGeometry x="1390" y="280" width="40" height="30" as="geometry" />
        </mxCell>
        <mxCell id="4nj-M8SeGnCszZqQIPwX-6" value="1" style="text;strokeColor=none;fillColor=none;spacingLeft=4;spacingRight=4;overflow=hidden;rotatable=0;points=[[0,0.5],[1,0.5]];portConstraint=eastwest;fontSize=12;whiteSpace=wrap;html=1;" parent="1" vertex="1">
          <mxGeometry x="1170" y="160" width="40" height="30" as="geometry" />
        </mxCell>
        <mxCell id="4nj-M8SeGnCszZqQIPwX-7" value="" style="edgeStyle=entityRelationEdgeStyle;fontSize=12;html=1;endArrow=ERoneToMany;rounded=0;" parent="1" source="2YUt7SpH-hO-_Qg9_gkx-21" target="4nj-M8SeGnCszZqQIPwX-1" edge="1">
          <mxGeometry width="100" height="100" relative="1" as="geometry">
            <mxPoint x="1150" y="-70" as="sourcePoint" />
            <mxPoint x="1040" y="-70" as="targetPoint" />
          </mxGeometry>
        </mxCell>
        <mxCell id="2YUt7SpH-hO-_Qg9_gkx-1" value="Client" style="whiteSpace=wrap;html=1;align=center;" parent="1" vertex="1">
          <mxGeometry x="640" y="487.5" width="100" height="40" as="geometry" />
        </mxCell>
        <mxCell id="2YUt7SpH-hO-_Qg9_gkx-2" value="Membership" style="whiteSpace=wrap;html=1;align=center;" parent="1" vertex="1">
          <mxGeometry x="170" y="488.75" width="100" height="40" as="geometry" />
        </mxCell>
        <mxCell id="2YUt7SpH-hO-_Qg9_gkx-5" value="Exercise" style="whiteSpace=wrap;html=1;align=center;" parent="1" vertex="1">
          <mxGeometry x="1300" y="610" width="100" height="40" as="geometry" />
        </mxCell>
        <mxCell id="2YUt7SpH-hO-_Qg9_gkx-6" value="Routine" style="whiteSpace=wrap;html=1;align=center;" parent="1" vertex="1">
          <mxGeometry x="1070" y="488.75" width="100" height="40" as="geometry" />
        </mxCell>
        <mxCell id="2YUt7SpH-hO-_Qg9_gkx-8" value="Branch" style="whiteSpace=wrap;html=1;align=center;" parent="1" vertex="1">
          <mxGeometry x="640" y="170" width="100" height="40" as="geometry" />
        </mxCell>
        <mxCell id="2YUt7SpH-hO-_Qg9_gkx-9" value="ExerciseMachine" style="whiteSpace=wrap;html=1;align=center;" parent="1" vertex="1">
          <mxGeometry x="170" y="170" width="100" height="40" as="geometry" />
        </mxCell>
        <mxCell id="2YUt7SpH-hO-_Qg9_gkx-10" value="1" style="text;strokeColor=none;fillColor=none;spacingLeft=4;spacingRight=4;overflow=hidden;rotatable=0;points=[[0,0.5],[1,0.5]];portConstraint=eastwest;fontSize=12;whiteSpace=wrap;html=1;" parent="1" vertex="1">
          <mxGeometry x="770" y="165" width="40" height="30" as="geometry" />
        </mxCell>
        <mxCell id="2YUt7SpH-hO-_Qg9_gkx-11" value="N" style="text;strokeColor=none;fillColor=none;spacingLeft=4;spacingRight=4;overflow=hidden;rotatable=0;points=[[0,0.5],[1,0.5]];portConstraint=eastwest;fontSize=12;whiteSpace=wrap;html=1;" parent="1" vertex="1">
          <mxGeometry x="280" y="160" width="40" height="30" as="geometry" />
        </mxCell>
        <mxCell id="2YUt7SpH-hO-_Qg9_gkx-12" value="" style="edgeStyle=entityRelationEdgeStyle;fontSize=12;html=1;endArrow=ERoneToMany;rounded=0;" parent="1" source="2YUt7SpH-hO-_Qg9_gkx-8" target="2YUt7SpH-hO-_Qg9_gkx-31" edge="1">
          <mxGeometry width="100" height="100" relative="1" as="geometry">
            <mxPoint x="910" y="120" as="sourcePoint" />
            <mxPoint x="860" y="210" as="targetPoint" />
          </mxGeometry>
        </mxCell>
        <mxCell id="2YUt7SpH-hO-_Qg9_gkx-13" value="" style="edgeStyle=entityRelationEdgeStyle;fontSize=12;html=1;endArrow=ERmandOne;startArrow=ERmandOne;rounded=0;" parent="1" source="2YUt7SpH-hO-_Qg9_gkx-1" target="2YUt7SpH-hO-_Qg9_gkx-29" edge="1">
          <mxGeometry width="100" height="100" relative="1" as="geometry">
            <mxPoint x="-5.000000000000455" y="700" as="sourcePoint" />
            <mxPoint x="55" y="760" as="targetPoint" />
          </mxGeometry>
        </mxCell>
        <mxCell id="2YUt7SpH-hO-_Qg9_gkx-14" value="1" style="text;strokeColor=none;fillColor=none;spacingLeft=4;spacingRight=4;overflow=hidden;rotatable=0;points=[[0,0.5],[1,0.5]];portConstraint=eastwest;fontSize=12;whiteSpace=wrap;html=1;" parent="1" vertex="1">
          <mxGeometry x="610" y="485" width="40" height="30" as="geometry" />
        </mxCell>
        <mxCell id="2YUt7SpH-hO-_Qg9_gkx-15" value="1" style="text;strokeColor=none;fillColor=none;spacingLeft=4;spacingRight=4;overflow=hidden;rotatable=0;points=[[0,0.5],[1,0.5]];portConstraint=eastwest;fontSize=12;whiteSpace=wrap;html=1;" parent="1" vertex="1">
          <mxGeometry x="280" y="478.75" width="40" height="30" as="geometry" />
        </mxCell>
        <mxCell id="2YUt7SpH-hO-_Qg9_gkx-16" value="1" style="text;strokeColor=none;fillColor=none;spacingLeft=4;spacingRight=4;overflow=hidden;rotatable=0;points=[[0,0.5],[1,0.5]];portConstraint=eastwest;fontSize=12;whiteSpace=wrap;html=1;" parent="1" vertex="1">
          <mxGeometry x="1400" y="600" width="40" height="30" as="geometry" />
        </mxCell>
        <mxCell id="2YUt7SpH-hO-_Qg9_gkx-17" value="N" style="text;strokeColor=none;fillColor=none;spacingLeft=4;spacingRight=4;overflow=hidden;rotatable=0;points=[[0,0.5],[1,0.5]];portConstraint=eastwest;fontSize=12;whiteSpace=wrap;html=1;" parent="1" vertex="1">
          <mxGeometry x="1040" y="478.75" width="40" height="30" as="geometry" />
        </mxCell>
        <mxCell id="2YUt7SpH-hO-_Qg9_gkx-18" value="" style="edgeStyle=entityRelationEdgeStyle;fontSize=12;html=1;endArrow=ERoneToMany;rounded=0;" parent="1" source="2YUt7SpH-hO-_Qg9_gkx-5" target="2YUt7SpH-hO-_Qg9_gkx-26" edge="1">
          <mxGeometry width="100" height="100" relative="1" as="geometry">
            <mxPoint x="800" y="798" as="sourcePoint" />
            <mxPoint x="910" y="798" as="targetPoint" />
          </mxGeometry>
        </mxCell>
        <mxCell id="2YUt7SpH-hO-_Qg9_gkx-21" value="tiene" style="shape=rhombus;perimeter=rhombusPerimeter;whiteSpace=wrap;html=1;align=center;" parent="1" vertex="1">
          <mxGeometry x="1270" y="160" width="120" height="60" as="geometry" />
        </mxCell>
        <mxCell id="2YUt7SpH-hO-_Qg9_gkx-22" value="1:N" style="text;strokeColor=none;fillColor=none;spacingLeft=4;spacingRight=4;overflow=hidden;rotatable=0;points=[[0,0.5],[1,0.5]];portConstraint=eastwest;fontSize=12;whiteSpace=wrap;html=1;" parent="1" vertex="1">
          <mxGeometry x="1325" y="120" width="30" height="30" as="geometry" />
        </mxCell>
        <mxCell id="2YUt7SpH-hO-_Qg9_gkx-23" value="" style="edgeStyle=entityRelationEdgeStyle;fontSize=12;html=1;endArrow=ERoneToMany;rounded=0;" parent="1" source="4nj-M8SeGnCszZqQIPwX-2" target="2YUt7SpH-hO-_Qg9_gkx-21" edge="1">
          <mxGeometry width="100" height="100" relative="1" as="geometry">
            <mxPoint x="1334" y="30" as="sourcePoint" />
            <mxPoint x="1244" y="30" as="targetPoint" />
          </mxGeometry>
        </mxCell>
        <mxCell id="2YUt7SpH-hO-_Qg9_gkx-26" value="tiene" style="shape=rhombus;perimeter=rhombusPerimeter;whiteSpace=wrap;html=1;align=center;" parent="1" vertex="1">
          <mxGeometry x="1270" y="481.25" width="120" height="60" as="geometry" />
        </mxCell>
        <mxCell id="2YUt7SpH-hO-_Qg9_gkx-27" value="" style="edgeStyle=entityRelationEdgeStyle;fontSize=12;html=1;endArrow=ERoneToMany;rounded=0;" parent="1" source="2YUt7SpH-hO-_Qg9_gkx-26" target="2YUt7SpH-hO-_Qg9_gkx-6" edge="1">
          <mxGeometry width="100" height="100" relative="1" as="geometry">
            <mxPoint x="790" y="662.5" as="sourcePoint" />
            <mxPoint x="850" y="602.5" as="targetPoint" />
          </mxGeometry>
        </mxCell>
        <mxCell id="2YUt7SpH-hO-_Qg9_gkx-28" value="1:N" style="text;strokeColor=none;fillColor=none;spacingLeft=4;spacingRight=4;overflow=hidden;rotatable=0;points=[[0,0.5],[1,0.5]];portConstraint=eastwest;fontSize=12;whiteSpace=wrap;html=1;" parent="1" vertex="1">
          <mxGeometry x="1315" y="446.25" width="30" height="30" as="geometry" />
        </mxCell>
        <mxCell id="2YUt7SpH-hO-_Qg9_gkx-29" value="tiene" style="shape=rhombus;perimeter=rhombusPerimeter;whiteSpace=wrap;html=1;align=center;" parent="1" vertex="1">
          <mxGeometry x="360" y="478.75" width="120" height="60" as="geometry" />
        </mxCell>
        <mxCell id="2YUt7SpH-hO-_Qg9_gkx-30" value="" style="edgeStyle=entityRelationEdgeStyle;fontSize=12;html=1;endArrow=ERmandOne;startArrow=ERmandOne;rounded=0;" parent="1" source="2YUt7SpH-hO-_Qg9_gkx-2" target="2YUt7SpH-hO-_Qg9_gkx-29" edge="1">
          <mxGeometry width="100" height="100" relative="1" as="geometry">
            <mxPoint x="60" y="836.25" as="sourcePoint" />
            <mxPoint x="230" y="766.25" as="targetPoint" />
          </mxGeometry>
        </mxCell>
        <mxCell id="2YUt7SpH-hO-_Qg9_gkx-31" value="tiene" style="shape=rhombus;perimeter=rhombusPerimeter;whiteSpace=wrap;html=1;align=center;" parent="1" vertex="1">
          <mxGeometry x="405" y="160" width="120" height="60" as="geometry" />
        </mxCell>
        <mxCell id="2YUt7SpH-hO-_Qg9_gkx-33" value="" style="edgeStyle=entityRelationEdgeStyle;fontSize=12;html=1;endArrow=ERoneToMany;rounded=0;" parent="1" source="2YUt7SpH-hO-_Qg9_gkx-31" target="2YUt7SpH-hO-_Qg9_gkx-9" edge="1">
          <mxGeometry width="100" height="100" relative="1" as="geometry">
            <mxPoint x="310" y="310" as="sourcePoint" />
            <mxPoint x="360" y="130" as="targetPoint" />
          </mxGeometry>
        </mxCell>
        <mxCell id="2YUt7SpH-hO-_Qg9_gkx-34" value="tiene" style="shape=rhombus;perimeter=rhombusPerimeter;whiteSpace=wrap;html=1;align=center;" parent="1" vertex="1">
          <mxGeometry x="840" y="478.75" width="120" height="60" as="geometry" />
        </mxCell>
        <mxCell id="2YUt7SpH-hO-_Qg9_gkx-35" value="" style="edgeStyle=entityRelationEdgeStyle;fontSize=12;html=1;endArrow=ERoneToMany;rounded=0;" parent="1" source="2YUt7SpH-hO-_Qg9_gkx-1" target="2YUt7SpH-hO-_Qg9_gkx-34" edge="1">
          <mxGeometry width="100" height="100" relative="1" as="geometry">
            <mxPoint x="1429.9999999999995" y="605" as="sourcePoint" />
            <mxPoint x="1350" y="615" as="targetPoint" />
            <Array as="points">
              <mxPoint x="1190" y="585" />
            </Array>
          </mxGeometry>
        </mxCell>
        <mxCell id="2YUt7SpH-hO-_Qg9_gkx-36" value="" style="edgeStyle=entityRelationEdgeStyle;fontSize=12;html=1;endArrow=ERoneToMany;rounded=0;" parent="1" source="2YUt7SpH-hO-_Qg9_gkx-34" target="2YUt7SpH-hO-_Qg9_gkx-6" edge="1">
          <mxGeometry width="100" height="100" relative="1" as="geometry">
            <mxPoint x="1400" y="782.5" as="sourcePoint" />
            <mxPoint x="1340" y="662.5" as="targetPoint" />
            <Array as="points">
              <mxPoint x="1220" y="762.5" />
            </Array>
          </mxGeometry>
        </mxCell>
        <mxCell id="2YUt7SpH-hO-_Qg9_gkx-37" value="N" style="text;strokeColor=none;fillColor=none;spacingLeft=4;spacingRight=4;overflow=hidden;rotatable=0;points=[[0,0.5],[1,0.5]];portConstraint=eastwest;fontSize=12;whiteSpace=wrap;html=1;" parent="1" vertex="1">
          <mxGeometry x="1200" y="485" width="40" height="30" as="geometry" />
        </mxCell>
        <mxCell id="2YUt7SpH-hO-_Qg9_gkx-38" value="1" style="text;strokeColor=none;fillColor=none;spacingLeft=4;spacingRight=4;overflow=hidden;rotatable=0;points=[[0,0.5],[1,0.5]];portConstraint=eastwest;fontSize=12;whiteSpace=wrap;html=1;" parent="1" vertex="1">
          <mxGeometry x="750" y="470" width="40" height="30" as="geometry" />
        </mxCell>
        <mxCell id="2YUt7SpH-hO-_Qg9_gkx-39" value="trabaja" style="shape=rhombus;perimeter=rhombusPerimeter;whiteSpace=wrap;html=1;align=center;" parent="1" vertex="1">
          <mxGeometry x="827" y="160" width="120" height="60" as="geometry" />
        </mxCell>
        <mxCell id="2YUt7SpH-hO-_Qg9_gkx-40" value="" style="edgeStyle=entityRelationEdgeStyle;fontSize=12;html=1;endArrow=ERmany;startArrow=ERmany;rounded=0;" parent="1" source="2YUt7SpH-hO-_Qg9_gkx-39" target="2YUt7SpH-hO-_Qg9_gkx-8" edge="1">
          <mxGeometry width="100" height="100" relative="1" as="geometry">
            <mxPoint x="520" y="290" as="sourcePoint" />
            <mxPoint x="620" y="190" as="targetPoint" />
          </mxGeometry>
        </mxCell>
        <mxCell id="2YUt7SpH-hO-_Qg9_gkx-41" value="" style="edgeStyle=entityRelationEdgeStyle;fontSize=12;html=1;endArrow=ERmany;startArrow=ERmany;rounded=0;" parent="1" source="2YUt7SpH-hO-_Qg9_gkx-39" target="4nj-M8SeGnCszZqQIPwX-1" edge="1">
          <mxGeometry width="100" height="100" relative="1" as="geometry">
            <mxPoint x="1100" y="195" as="sourcePoint" />
            <mxPoint x="1160" y="320" as="targetPoint" />
          </mxGeometry>
        </mxCell>
        <mxCell id="2YUt7SpH-hO-_Qg9_gkx-42" value="N" style="text;strokeColor=none;fillColor=none;spacingLeft=4;spacingRight=4;overflow=hidden;rotatable=0;points=[[0,0.5],[1,0.5]];portConstraint=eastwest;fontSize=12;whiteSpace=wrap;html=1;" parent="1" vertex="1">
          <mxGeometry x="1030" y="165" width="40" height="30" as="geometry" />
        </mxCell>
        <mxCell id="2YUt7SpH-hO-_Qg9_gkx-43" value="1" style="text;strokeColor=none;fillColor=none;spacingLeft=4;spacingRight=4;overflow=hidden;rotatable=0;points=[[0,0.5],[1,0.5]];portConstraint=eastwest;fontSize=12;whiteSpace=wrap;html=1;" parent="1" vertex="1">
          <mxGeometry x="610" y="160" width="40" height="30" as="geometry" />
        </mxCell>
        <mxCell id="2YUt7SpH-hO-_Qg9_gkx-45" value="inscrito" style="shape=rhombus;perimeter=rhombusPerimeter;whiteSpace=wrap;html=1;align=center;" parent="1" vertex="1">
          <mxGeometry x="630" y="305" width="120" height="60" as="geometry" />
        </mxCell>
        <mxCell id="2YUt7SpH-hO-_Qg9_gkx-47" value="" style="fontSize=12;html=1;endArrow=ERoneToMany;rounded=0;" parent="1" source="2YUt7SpH-hO-_Qg9_gkx-45" target="2YUt7SpH-hO-_Qg9_gkx-1" edge="1">
          <mxGeometry width="100" height="100" relative="1" as="geometry">
            <mxPoint x="520" y="410" as="sourcePoint" />
            <mxPoint x="620" y="310" as="targetPoint" />
          </mxGeometry>
        </mxCell>
        <mxCell id="2YUt7SpH-hO-_Qg9_gkx-48" value="" style="fontSize=12;html=1;endArrow=ERoneToMany;rounded=0;" parent="1" source="2YUt7SpH-hO-_Qg9_gkx-8" target="2YUt7SpH-hO-_Qg9_gkx-45" edge="1">
          <mxGeometry width="100" height="100" relative="1" as="geometry">
            <mxPoint x="710" y="460" as="sourcePoint" />
            <mxPoint x="860" y="520" as="targetPoint" />
          </mxGeometry>
        </mxCell>
        <mxCell id="2YUt7SpH-hO-_Qg9_gkx-49" value="1" style="text;strokeColor=none;fillColor=none;spacingLeft=4;spacingRight=4;overflow=hidden;rotatable=0;points=[[0,0.5],[1,0.5]];portConstraint=eastwest;fontSize=12;whiteSpace=wrap;html=1;" parent="1" vertex="1">
          <mxGeometry x="690" y="210" width="40" height="30" as="geometry" />
        </mxCell>
        <mxCell id="2YUt7SpH-hO-_Qg9_gkx-50" value="N" style="text;strokeColor=none;fillColor=none;spacingLeft=4;spacingRight=4;overflow=hidden;rotatable=0;points=[[0,0.5],[1,0.5]];portConstraint=eastwest;fontSize=12;whiteSpace=wrap;html=1;" parent="1" vertex="1">
          <mxGeometry x="690" y="457.5" width="40" height="30" as="geometry" />
        </mxCell>
        <mxCell id="2YUt7SpH-hO-_Qg9_gkx-51" value="1:N" style="text;strokeColor=none;fillColor=none;spacingLeft=4;spacingRight=4;overflow=hidden;rotatable=0;points=[[0,0.5],[1,0.5]];portConstraint=eastwest;fontSize=12;whiteSpace=wrap;html=1;" parent="1" vertex="1">
          <mxGeometry x="880" y="431.25" width="30" height="30" as="geometry" />
        </mxCell>
        <mxCell id="2YUt7SpH-hO-_Qg9_gkx-52" value="1:1" style="text;strokeColor=none;fillColor=none;spacingLeft=4;spacingRight=4;overflow=hidden;rotatable=0;points=[[0,0.5],[1,0.5]];portConstraint=eastwest;fontSize=12;whiteSpace=wrap;html=1;" parent="1" vertex="1">
          <mxGeometry x="410" y="443.75" width="30" height="30" as="geometry" />
        </mxCell>
        <mxCell id="2YUt7SpH-hO-_Qg9_gkx-53" value="1:N" style="text;strokeColor=none;fillColor=none;spacingLeft=4;spacingRight=4;overflow=hidden;rotatable=0;points=[[0,0.5],[1,0.5]];portConstraint=eastwest;fontSize=12;whiteSpace=wrap;html=1;" parent="1" vertex="1">
          <mxGeometry x="450" y="130" width="30" height="30" as="geometry" />
        </mxCell>
        <mxCell id="2YUt7SpH-hO-_Qg9_gkx-54" value="1:N" style="text;strokeColor=none;fillColor=none;spacingLeft=4;spacingRight=4;overflow=hidden;rotatable=0;points=[[0,0.5],[1,0.5]];portConstraint=eastwest;fontSize=12;whiteSpace=wrap;html=1;" parent="1" vertex="1">
          <mxGeometry x="872" y="130" width="30" height="30" as="geometry" />
        </mxCell>
        <mxCell id="2YUt7SpH-hO-_Qg9_gkx-55" value="MembershipType" style="whiteSpace=wrap;html=1;align=center;" parent="1" vertex="1">
          <mxGeometry x="170" y="800" width="100" height="40" as="geometry" />
        </mxCell>
        <mxCell id="2YUt7SpH-hO-_Qg9_gkx-56" value="tiene" style="shape=rhombus;perimeter=rhombusPerimeter;whiteSpace=wrap;html=1;align=center;" parent="1" vertex="1">
          <mxGeometry x="160" y="630" width="120" height="60" as="geometry" />
        </mxCell>
        <mxCell id="2YUt7SpH-hO-_Qg9_gkx-57" value="" style="fontSize=12;html=1;endArrow=ERmandOne;startArrow=ERmandOne;rounded=0;" parent="1" source="2YUt7SpH-hO-_Qg9_gkx-56" target="2YUt7SpH-hO-_Qg9_gkx-2" edge="1">
          <mxGeometry width="100" height="100" relative="1" as="geometry">
            <mxPoint x="520" y="420" as="sourcePoint" />
            <mxPoint x="620" y="320" as="targetPoint" />
          </mxGeometry>
        </mxCell>
        <mxCell id="2YUt7SpH-hO-_Qg9_gkx-58" value="" style="fontSize=12;html=1;endArrow=ERmandOne;startArrow=ERmandOne;rounded=0;" parent="1" source="2YUt7SpH-hO-_Qg9_gkx-55" target="2YUt7SpH-hO-_Qg9_gkx-56" edge="1">
          <mxGeometry width="100" height="100" relative="1" as="geometry">
            <mxPoint x="234" y="642" as="sourcePoint" />
            <mxPoint x="232" y="539" as="targetPoint" />
          </mxGeometry>
        </mxCell>
        <mxCell id="2YUt7SpH-hO-_Qg9_gkx-59" value="1" style="text;strokeColor=none;fillColor=none;spacingLeft=4;spacingRight=4;overflow=hidden;rotatable=0;points=[[0,0.5],[1,0.5]];portConstraint=eastwest;fontSize=12;whiteSpace=wrap;html=1;" parent="1" vertex="1">
          <mxGeometry x="220" y="527.5" width="40" height="30" as="geometry" />
        </mxCell>
        <mxCell id="2YUt7SpH-hO-_Qg9_gkx-60" value="1" style="text;strokeColor=none;fillColor=none;spacingLeft=4;spacingRight=4;overflow=hidden;rotatable=0;points=[[0,0.5],[1,0.5]];portConstraint=eastwest;fontSize=12;whiteSpace=wrap;html=1;" parent="1" vertex="1">
          <mxGeometry x="230" y="770" width="40" height="30" as="geometry" />
        </mxCell>
        <mxCell id="2YUt7SpH-hO-_Qg9_gkx-61" value="1:1" style="text;strokeColor=none;fillColor=none;spacingLeft=4;spacingRight=4;overflow=hidden;rotatable=0;points=[[0,0.5],[1,0.5]];portConstraint=eastwest;fontSize=12;whiteSpace=wrap;html=1;" parent="1" vertex="1">
          <mxGeometry x="130" y="645" width="30" height="30" as="geometry" />
        </mxCell>
        <mxCell id="2YUt7SpH-hO-_Qg9_gkx-62" value="paga" style="shape=rhombus;perimeter=rhombusPerimeter;whiteSpace=wrap;html=1;align=center;" parent="1" vertex="1">
          <mxGeometry x="630" y="615" width="120" height="60" as="geometry" />
        </mxCell>
        <mxCell id="2YUt7SpH-hO-_Qg9_gkx-63" value="" style="fontSize=12;html=1;endArrow=ERmandOne;startArrow=ERmandOne;rounded=0;" parent="1" source="2YUt7SpH-hO-_Qg9_gkx-66" target="2YUt7SpH-hO-_Qg9_gkx-1" edge="1">
          <mxGeometry width="100" height="100" relative="1" as="geometry">
            <mxPoint x="230" y="640" as="sourcePoint" />
            <mxPoint x="230" y="539" as="targetPoint" />
          </mxGeometry>
        </mxCell>
        <mxCell id="2YUt7SpH-hO-_Qg9_gkx-64" value="" style="fontSize=12;html=1;endArrow=ERmandOne;startArrow=ERmandOne;rounded=0;" parent="1" source="2YUt7SpH-hO-_Qg9_gkx-65" target="2YUt7SpH-hO-_Qg9_gkx-62" edge="1">
          <mxGeometry width="100" height="100" relative="1" as="geometry">
            <mxPoint x="700" y="625" as="sourcePoint" />
            <mxPoint x="700" y="538" as="targetPoint" />
          </mxGeometry>
        </mxCell>
        <mxCell id="2YUt7SpH-hO-_Qg9_gkx-65" value="Service" style="whiteSpace=wrap;html=1;align=center;" parent="1" vertex="1">
          <mxGeometry x="640" y="800" width="100" height="40" as="geometry" />
        </mxCell>
        <mxCell id="2YUt7SpH-hO-_Qg9_gkx-67" value="" style="fontSize=12;html=1;endArrow=ERmandOne;startArrow=ERmandOne;rounded=0;" parent="1" source="2YUt7SpH-hO-_Qg9_gkx-62" target="2YUt7SpH-hO-_Qg9_gkx-1" edge="1">
          <mxGeometry width="100" height="100" relative="1" as="geometry">
            <mxPoint x="690" y="615" as="sourcePoint" />
            <mxPoint x="690" y="528" as="targetPoint" />
          </mxGeometry>
        </mxCell>
        <mxCell id="2YUt7SpH-hO-_Qg9_gkx-66" value="1" style="text;strokeColor=none;fillColor=none;spacingLeft=4;spacingRight=4;overflow=hidden;rotatable=0;points=[[0,0.5],[1,0.5]];portConstraint=eastwest;fontSize=12;whiteSpace=wrap;html=1;" parent="1" vertex="1">
          <mxGeometry x="660" y="527.5" width="40" height="30" as="geometry" />
        </mxCell>
        <mxCell id="2YUt7SpH-hO-_Qg9_gkx-68" value="1" style="text;strokeColor=none;fillColor=none;spacingLeft=4;spacingRight=4;overflow=hidden;rotatable=0;points=[[0,0.5],[1,0.5]];portConstraint=eastwest;fontSize=12;whiteSpace=wrap;html=1;" parent="1" vertex="1">
          <mxGeometry x="660" y="770" width="40" height="30" as="geometry" />
        </mxCell>
        <mxCell id="2YUt7SpH-hO-_Qg9_gkx-69" value="1:1" style="text;strokeColor=none;fillColor=none;spacingLeft=4;spacingRight=4;overflow=hidden;rotatable=0;points=[[0,0.5],[1,0.5]];portConstraint=eastwest;fontSize=12;whiteSpace=wrap;html=1;" parent="1" vertex="1">
          <mxGeometry x="600" y="630" width="30" height="30" as="geometry" />
        </mxCell>
        <mxCell id="KjHAL3Xpi73qTXY5OEJM-1" value="ServiceType" style="whiteSpace=wrap;html=1;align=center;" vertex="1" parent="1">
          <mxGeometry x="640" y="1112.5" width="100" height="40" as="geometry" />
        </mxCell>
        <mxCell id="KjHAL3Xpi73qTXY5OEJM-2" value="tiene" style="shape=rhombus;perimeter=rhombusPerimeter;whiteSpace=wrap;html=1;align=center;" vertex="1" parent="1">
          <mxGeometry x="630" y="942.5" width="120" height="60" as="geometry" />
        </mxCell>
        <mxCell id="KjHAL3Xpi73qTXY5OEJM-3" value="" style="fontSize=12;html=1;endArrow=ERmandOne;startArrow=ERmandOne;rounded=0;" edge="1" source="KjHAL3Xpi73qTXY5OEJM-2" parent="1" target="2YUt7SpH-hO-_Qg9_gkx-65">
          <mxGeometry width="100" height="100" relative="1" as="geometry">
            <mxPoint x="990" y="732.5" as="sourcePoint" />
            <mxPoint x="690" y="841.5" as="targetPoint" />
          </mxGeometry>
        </mxCell>
        <mxCell id="KjHAL3Xpi73qTXY5OEJM-4" value="" style="fontSize=12;html=1;endArrow=ERmandOne;startArrow=ERmandOne;rounded=0;" edge="1" source="KjHAL3Xpi73qTXY5OEJM-1" target="KjHAL3Xpi73qTXY5OEJM-2" parent="1">
          <mxGeometry width="100" height="100" relative="1" as="geometry">
            <mxPoint x="704" y="954.5" as="sourcePoint" />
            <mxPoint x="702" y="851.5" as="targetPoint" />
          </mxGeometry>
        </mxCell>
        <mxCell id="KjHAL3Xpi73qTXY5OEJM-5" value="1" style="text;strokeColor=none;fillColor=none;spacingLeft=4;spacingRight=4;overflow=hidden;rotatable=0;points=[[0,0.5],[1,0.5]];portConstraint=eastwest;fontSize=12;whiteSpace=wrap;html=1;" vertex="1" parent="1">
          <mxGeometry x="690" y="840" width="40" height="30" as="geometry" />
        </mxCell>
        <mxCell id="KjHAL3Xpi73qTXY5OEJM-6" value="1" style="text;strokeColor=none;fillColor=none;spacingLeft=4;spacingRight=4;overflow=hidden;rotatable=0;points=[[0,0.5],[1,0.5]];portConstraint=eastwest;fontSize=12;whiteSpace=wrap;html=1;" vertex="1" parent="1">
          <mxGeometry x="700" y="1082.5" width="40" height="30" as="geometry" />
        </mxCell>
        <mxCell id="KjHAL3Xpi73qTXY5OEJM-7" value="1:1" style="text;strokeColor=none;fillColor=none;spacingLeft=4;spacingRight=4;overflow=hidden;rotatable=0;points=[[0,0.5],[1,0.5]];portConstraint=eastwest;fontSize=12;whiteSpace=wrap;html=1;" vertex="1" parent="1">
          <mxGeometry x="600" y="957.5" width="30" height="30" as="geometry" />
        </mxCell>
        <mxCell id="KjHAL3Xpi73qTXY5OEJM-8" value="Store" style="whiteSpace=wrap;html=1;align=center;" vertex="1" parent="1">
          <mxGeometry x="731.5" y="-80" width="97" height="40" as="geometry" />
        </mxCell>
        <mxCell id="KjHAL3Xpi73qTXY5OEJM-9" value="1" style="text;strokeColor=none;fillColor=none;spacingLeft=4;spacingRight=4;overflow=hidden;rotatable=0;points=[[0,0.5],[1,0.5]];portConstraint=eastwest;fontSize=12;whiteSpace=wrap;html=1;" vertex="1" parent="1">
          <mxGeometry x="828.5" y="-80" width="40" height="30" as="geometry" />
        </mxCell>
        <mxCell id="KjHAL3Xpi73qTXY5OEJM-10" value="trabaja" style="shape=rhombus;perimeter=rhombusPerimeter;whiteSpace=wrap;html=1;align=center;" vertex="1" parent="1">
          <mxGeometry x="1050" y="-90" width="120" height="60" as="geometry" />
        </mxCell>
        <mxCell id="KjHAL3Xpi73qTXY5OEJM-11" value="" style="edgeStyle=entityRelationEdgeStyle;fontSize=12;html=1;endArrow=ERmany;startArrow=ERmany;rounded=0;" edge="1" source="KjHAL3Xpi73qTXY5OEJM-10" parent="1" target="KjHAL3Xpi73qTXY5OEJM-8">
          <mxGeometry width="100" height="100" relative="1" as="geometry">
            <mxPoint x="580" y="40" as="sourcePoint" />
            <mxPoint x="800" y="-60" as="targetPoint" />
          </mxGeometry>
        </mxCell>
        <mxCell id="KjHAL3Xpi73qTXY5OEJM-12" value="" style="fontSize=12;html=1;endArrow=ERmany;startArrow=ERmany;rounded=0;" edge="1" source="KjHAL3Xpi73qTXY5OEJM-10" parent="1" target="4nj-M8SeGnCszZqQIPwX-1">
          <mxGeometry width="100" height="100" relative="1" as="geometry">
            <mxPoint x="1160" y="-55" as="sourcePoint" />
            <mxPoint x="1120" y="-60" as="targetPoint" />
          </mxGeometry>
        </mxCell>
        <mxCell id="KjHAL3Xpi73qTXY5OEJM-13" value="N" style="text;strokeColor=none;fillColor=none;spacingLeft=4;spacingRight=4;overflow=hidden;rotatable=0;points=[[0,0.5],[1,0.5]];portConstraint=eastwest;fontSize=12;whiteSpace=wrap;html=1;" vertex="1" parent="1">
          <mxGeometry x="1110" y="135" width="40" height="30" as="geometry" />
        </mxCell>
        <mxCell id="KjHAL3Xpi73qTXY5OEJM-14" value="1:N" style="text;strokeColor=none;fillColor=none;spacingLeft=4;spacingRight=4;overflow=hidden;rotatable=0;points=[[0,0.5],[1,0.5]];portConstraint=eastwest;fontSize=12;whiteSpace=wrap;html=1;" vertex="1" parent="1">
          <mxGeometry x="1100" y="-130" width="30" height="30" as="geometry" />
        </mxCell>
        <mxCell id="KjHAL3Xpi73qTXY5OEJM-18" value="N" style="text;strokeColor=none;fillColor=none;spacingLeft=4;spacingRight=4;overflow=hidden;rotatable=0;points=[[0,0.5],[1,0.5]];portConstraint=eastwest;fontSize=12;whiteSpace=wrap;html=1;" vertex="1" parent="1">
          <mxGeometry x="200" y="135" width="40" height="30" as="geometry" />
        </mxCell>
        <mxCell id="KjHAL3Xpi73qTXY5OEJM-19" value="almacena" style="shape=rhombus;perimeter=rhombusPerimeter;whiteSpace=wrap;html=1;align=center;" vertex="1" parent="1">
          <mxGeometry x="405" y="-90" width="120" height="60" as="geometry" />
        </mxCell>
        <mxCell id="KjHAL3Xpi73qTXY5OEJM-20" value="1:N" style="text;strokeColor=none;fillColor=none;spacingLeft=4;spacingRight=4;overflow=hidden;rotatable=0;points=[[0,0.5],[1,0.5]];portConstraint=eastwest;fontSize=12;whiteSpace=wrap;html=1;" vertex="1" parent="1">
          <mxGeometry x="450" y="-130" width="30" height="30" as="geometry" />
        </mxCell>
        <mxCell id="KjHAL3Xpi73qTXY5OEJM-21" value="1" style="text;strokeColor=none;fillColor=none;spacingLeft=4;spacingRight=4;overflow=hidden;rotatable=0;points=[[0,0.5],[1,0.5]];portConstraint=eastwest;fontSize=12;whiteSpace=wrap;html=1;" vertex="1" parent="1">
          <mxGeometry x="711.5" y="-80" width="40" height="30" as="geometry" />
        </mxCell>
        <mxCell id="KjHAL3Xpi73qTXY5OEJM-22" value="" style="edgeStyle=orthogonalEdgeStyle;fontSize=12;html=1;endArrow=ERzeroToMany;endFill=1;rounded=0;" edge="1" parent="1" source="KjHAL3Xpi73qTXY5OEJM-19" target="2YUt7SpH-hO-_Qg9_gkx-9">
          <mxGeometry width="100" height="100" relative="1" as="geometry">
            <mxPoint x="740" y="60" as="sourcePoint" />
            <mxPoint x="840" y="-40" as="targetPoint" />
          </mxGeometry>
        </mxCell>
        <mxCell id="KjHAL3Xpi73qTXY5OEJM-23" value="" style="fontSize=12;html=1;endArrow=ERzeroToMany;endFill=1;rounded=0;" edge="1" parent="1" source="KjHAL3Xpi73qTXY5OEJM-8" target="KjHAL3Xpi73qTXY5OEJM-19">
          <mxGeometry width="100" height="100" relative="1" as="geometry">
            <mxPoint x="370" y="-55" as="sourcePoint" />
            <mxPoint x="230" y="180" as="targetPoint" />
          </mxGeometry>
        </mxCell>
      </root>
    </mxGraphModel>
  </diagram>
</mxfile>
